<svg xmlns="http://www.w3.org/2000/svg" viewBox="0 0 512 512">
  <rect width="512" height="512" rx="96" fill="#F6F1E4"/>
  <path transform="translate(172 308) scale(0.53 -0.53)" d="M275 -12Q245 -12 214.0 -4.5Q183 3 157.5 12.5Q132 22 119 28Q105 21 97.0 14.0Q89 7 81 -1Q71 -11 60.5 -7.0Q50 -3 50 11V150Q50 163 61.5 165.0Q73 167 79 157Q154 34 277 34Q325 34 358.5 54.0Q392 74 392 113Q392 139 368.0 153.0Q344 167 306.0 175.5Q268 184 226.0 194.0Q184 204 146.0 221.0Q108 238 84.0 268.5Q60 299 60 350Q60 384 78.5 415.0Q97 446 135.0 465.5Q173 485 231 485Q275 485 317.0 472.5Q359 460 381 449Q387 454 396.5 462.0Q406 470 414 476Q423 482 430.5 480.5Q438 479 438 466V341Q438 328 426.0 325.5Q414 323 409 333Q384 392 338.0 418.0Q292 444 246 444Q194 444 167.0 421.5Q140 399 140 370Q140 346 164.0 333.5Q188 321 225.5 313.5Q263 306 305.0 297.5Q347 289 384.5 272.0Q422 255 446.0 223.5Q470 192 470 139Q470 97 446.0 62.5Q422 28 378.0 8.0Q334 -12 275 -12Z" fill="#221F1A"/>
  <circle cx="122" cy="384" r="15" fill="#C0392F"/>
  <path d="M 152 380 C 230 371 310 373 392 377 C 320 383 230 387 156 387 Z" fill="#221F1A"/>
</svg>
