<svg xmlns="http://www.w3.org/2000/svg" viewBox="0 0 512 512">
  <rect width="512" height="512" rx="120" fill="#FFF5DE"/>
  <path transform="translate(160 300) scale(0.50 -0.50)" d="M252 200Q144 220 97.5 262.0Q51 304 51 373Q51 447 106.5 488.5Q162 530 274 530Q340 530 409 519Q433 515 448.5 496.0Q464 477 464 452V447Q464 426 447.5 413.0Q431 400 410 404Q345 417 290 417Q249 417 232.5 407.0Q216 397 216 377Q216 339 276 327Q390 308 435.5 267.0Q481 226 481 148Q481 73 425.0 31.5Q369 -10 262 -10Q184 -10 114 5Q90 10 74.5 30.5Q59 51 59 77V85Q59 106 76.0 117.5Q93 129 114 124Q179 107 242 107Q316 107 316 150Q316 170 302.5 181.0Q289 192 252 200Z" fill="#FF6B57"/>
  <circle cx="118" cy="384" r="17" fill="#2EC4B6"/>
  <path d="M 152 379 C 230 369 310 371 394 376 C 320 383 230 387 156 388 Z" fill="#FF6B57"/>
</svg>
