<svg xmlns="http://www.w3.org/2000/svg" viewBox="0 0 480 150" role="img" aria-label="senkoku">
  <!-- 線刻 (senkoku) ロゴ: M PLUS Rounded 1c 800 をアウトライン化。コーラル文字 + ティールの始点● -->
  <g fill="#FF6B57">
    <path transform="translate(34.0 86) scale(0.07476851851851851 -0.07476851851851851)" d="M252 200Q144 220 97.5 262.0Q51 304 51 373Q51 447 106.5 488.5Q162 530 274 530Q340 530 409 519Q433 515 448.5 496.0Q464 477 464 452V447Q464 426 447.5 413.0Q431 400 410 404Q345 417 290 417Q249 417 232.5 407.0Q216 397 216 377Q216 339 276 327Q390 308 435.5 267.0Q481 226 481 148Q481 73 425.0 31.5Q369 -10 262 -10Q184 -10 114 5Q90 10 74.5 30.5Q59 51 59 77V85Q59 106 76.0 117.5Q93 129 114 124Q179 107 242 107Q316 107 316 150Q316 170 302.5 181.0Q289 192 252 200Z"/>
    <path transform="translate(76.76759259259259 86) scale(0.07476851851851851 -0.07476851851851851)" d="M289 421Q244 421 221.0 397.5Q198 374 192 317Q192 309 199 309H368Q377 309 377 318Q373 421 289 421ZM314 -10Q178 -10 104.5 59.0Q31 128 31 260Q31 391 96.5 460.5Q162 530 286 530Q524 530 528 270Q528 246 509.5 229.5Q491 213 467 213H200Q190 213 192 204Q200 149 234.5 125.5Q269 102 338 102Q383 102 435 115Q456 120 472.5 107.0Q489 94 489 73V71Q489 46 473.5 25.5Q458 5 434 1Q376 -10 314 -10Z"/>
    <path transform="translate(121.92777777777778 86) scale(0.07476851851851851 -0.07476851851851851)" d="M122 0Q99 0 82.5 17.0Q66 34 66 57V463Q66 486 82.5 503.0Q99 520 122 520H163Q187 520 203.5 503.5Q220 487 221 463L222 455Q222 454 223 454L225 456Q290 530 381.0 530.0Q472 530 512.0 478.5Q552 427 552 303V57Q552 34 535.5 17.0Q519 0 496 0H452Q429 0 412.0 17.0Q395 34 395 57V298Q395 358 379.0 380.5Q363 403 321 403Q286 403 256.5 374.5Q227 346 227 313V57Q227 34 210.5 17.0Q194 0 171 0Z"/>
    <path transform="translate(170.75162037037035 86) scale(0.07476851851851851 -0.07476851851851851)" d="M127 0Q104 0 87.5 17.0Q71 34 71 57V693Q71 716 87.5 733.0Q104 750 127 750H176Q199 750 215.5 733.0Q232 716 232 693V324Q232 323 233 323L235 324L360 476Q396 520 452 520H524Q540 520 547.5 505.0Q555 490 544 477L373 276Q368 270 373 263L546 44Q556 30 548.5 15.0Q541 0 524 0H452Q396 0 361 45L235 209Q234 210 233.0 210.0Q232 210 232 209V57Q232 34 215.5 17.0Q199 0 176 0Z"/>
    <path transform="translate(217.70624999999998 86) scale(0.07476851851851851 -0.07476851851851851)" d="M367.5 380.0Q343 417 293.0 417.0Q243 417 218.5 380.0Q194 343 194.0 260.0Q194 177 218.5 140.0Q243 103 293.0 103.0Q343 103 367.5 140.0Q392 177 392.0 260.0Q392 343 367.5 380.0ZM486.0 61.0Q417 -10 293.0 -10.0Q169 -10 100.0 61.0Q31 132 31.0 260.0Q31 388 100.0 459.0Q169 530 293.0 530.0Q417 530 486.0 459.0Q555 388 555.0 260.0Q555 132 486.0 61.0Z"/>
    <path transform="translate(264.51134259259254 86) scale(0.07476851851851851 -0.07476851851851851)" d="M127 0Q104 0 87.5 17.0Q71 34 71 57V693Q71 716 87.5 733.0Q104 750 127 750H176Q199 750 215.5 733.0Q232 716 232 693V324Q232 323 233 323L235 324L360 476Q396 520 452 520H524Q540 520 547.5 505.0Q555 490 544 477L373 276Q368 270 373 263L546 44Q556 30 548.5 15.0Q541 0 524 0H452Q396 0 361 45L235 209Q234 210 233.0 210.0Q232 210 232 209V57Q232 34 215.5 17.0Q199 0 176 0Z"/>
    <path transform="translate(311.4659722222222 86) scale(0.07476851851851851 -0.07476851851851851)" d="M228 -10Q140 -10 100.5 39.0Q61 88 61 207V463Q61 486 78.0 503.0Q95 520 118 520H162Q185 520 202.0 503.0Q219 486 219 463V218Q219 160 234.5 138.5Q250 117 288 117Q323 117 352.0 145.5Q381 174 381 207V463Q381 486 398.0 503.0Q415 520 438 520H486Q509 520 526.0 503.0Q543 486 543 463V57Q543 34 526.0 17.0Q509 0 486 0H445Q421 0 404.5 16.5Q388 33 387 57V65Q387 66 386 66L384 64Q319 -10 228 -10Z"/>
  </g>
  <circle cx="40" cy="118" r="7" fill="#2EC4B6"/>
  <path d="M 52 115 C 160 105 300 107 442 112 C 330 118 170 123 55 123 Z" fill="#FF6B57"/>
</svg>
