<svg xmlns="http://www.w3.org/2000/svg" viewBox="0 0 480 150" role="img" aria-label="senkoku">
  <!-- 線刻 (senkoku) ロゴ: Zen Antique をアウトライン化。始点●と一筆は運筆道場のガイド意匠 -->
  <g fill="#221F1A">
    <path transform="translate(34.0 86) scale(0.072 -0.072)" d="M275 -12Q245 -12 214.0 -4.5Q183 3 157.5 12.5Q132 22 119 28Q105 21 97.0 14.0Q89 7 81 -1Q71 -11 60.5 -7.0Q50 -3 50 11V150Q50 163 61.5 165.0Q73 167 79 157Q154 34 277 34Q325 34 358.5 54.0Q392 74 392 113Q392 139 368.0 153.0Q344 167 306.0 175.5Q268 184 226.0 194.0Q184 204 146.0 221.0Q108 238 84.0 268.5Q60 299 60 350Q60 384 78.5 415.0Q97 446 135.0 465.5Q173 485 231 485Q275 485 317.0 472.5Q359 460 381 449Q387 454 396.5 462.0Q406 470 414 476Q423 482 430.5 480.5Q438 479 438 466V341Q438 328 426.0 325.5Q414 323 409 333Q384 392 338.0 418.0Q292 444 246 444Q194 444 167.0 421.5Q140 399 140 370Q140 346 164.0 333.5Q188 321 225.5 313.5Q263 306 305.0 297.5Q347 289 384.5 272.0Q422 255 446.0 223.5Q470 192 470 139Q470 97 446.0 62.5Q422 28 378.0 8.0Q334 -12 275 -12Z"/>
    <path transform="translate(76.696 86) scale(0.072 -0.072)" d="M283 -12Q169 -12 104.5 50.0Q40 112 40 228Q40 301 69.0 359.0Q98 417 151.5 451.0Q205 485 276 485Q330 485 370.0 464.0Q410 443 436.0 409.0Q462 375 475.0 335.5Q488 296 488 258Q488 242 468 242H158Q156 166 171.5 123.0Q187 80 218.0 63.0Q249 46 293 46Q344 46 384.5 68.0Q425 90 451 123Q462 136 476 127Q490 118 480 103Q460 73 434.5 47.0Q409 21 372.5 4.5Q336 -12 283 -12ZM160 281H368Q370 329 361.5 367.0Q353 405 332.5 427.0Q312 449 274 449Q226 449 199.0 403.5Q172 358 160 281Z"/>
    <path transform="translate(120.68799999999999 86) scale(0.072 -0.072)" d="M46 0Q31 0 31 17Q31 33 46 33Q80 33 92.5 48.0Q105 63 105 99V387Q105 407 102.0 418.5Q99 430 86 432Q79 434 65.0 435.5Q51 437 44 438Q30 440 30 454Q30 470 45 470Q48 470 68.0 471.0Q88 472 113.0 472.5Q138 473 159.0 473.0Q180 473 186 473Q211 472 211 447V391Q225 414 248.5 435.5Q272 457 305.0 471.0Q338 485 378 485Q415 485 446.0 471.0Q477 457 496.0 424.0Q515 391 515 333V101Q515 63 526.5 48.0Q538 33 563 33Q578 33 578 17Q578 0 563 0Q556 0 538.0 1.0Q520 2 499.0 2.5Q478 3 460 3Q443 3 422.0 2.5Q401 2 383.5 1.0Q366 0 358 0Q343 0 343 17Q343 33 358 33Q389 33 398.0 48.0Q407 63 407 99V319Q407 376 386.0 399.5Q365 423 327 423Q299 423 272.5 405.5Q246 388 229.5 359.0Q213 330 213 295V101Q213 63 224.0 48.0Q235 33 257 33Q273 33 273 17Q273 0 257 0Q246 0 215.5 1.5Q185 3 159 3Q142 3 118.0 2.5Q94 2 74.0 1.0Q54 0 46 0Z"/>
    <path transform="translate(170.44 86) scale(0.072 -0.072)" d="M52 0Q36 0 36 17Q36 33 52 33Q85 33 100.5 47.0Q116 61 116 92V637Q116 665 110.5 673.5Q105 682 91 685Q84 687 67.5 688.5Q51 690 44 691Q30 693 30 707Q30 722 45 724Q48 724 70.0 724.5Q92 725 119.5 725.0Q147 725 170.0 725.5Q193 726 199 726Q224 726 224 700V253Q241 269 265.5 291.0Q290 313 314.0 335.0Q338 357 353 372Q382 401 376.5 420.5Q371 440 347 440Q332 440 332 457Q332 473 347 473Q358 473 386.0 472.0Q414 471 440 471Q466 471 493.5 472.0Q521 473 532 473Q547 473 547 457Q547 440 532 440Q500 440 468.0 424.0Q436 408 389 364Q384 359 376.5 352.5Q369 346 352 330Q383 277 413.5 226.0Q444 175 467.0 138.0Q490 101 497 90Q513 67 527.5 50.0Q542 33 562 33Q577 33 577 17Q577 0 562 0Q555 0 536.5 1.0Q518 2 497.0 2.5Q476 3 458 3Q432 3 407.0 1.5Q382 0 371 0Q356 0 356 17Q356 33 371 33Q386 33 390.0 42.0Q394 51 386 63Q381 74 363.0 105.0Q345 136 321.5 177.0Q298 218 274 258Q258 243 245.0 232.0Q232 221 224 213V94Q224 57 238.5 45.0Q253 33 275 33Q290 33 290 17Q290 0 275 0Q268 0 249.0 1.0Q230 2 208.5 2.5Q187 3 169 3Q152 3 127.0 2.5Q102 2 80.5 1.0Q59 0 52 0Z"/>
    <path transform="translate(219.39999999999998 86) scale(0.072 -0.072)" d="M276 -12Q204 -12 151.0 20.5Q98 53 69.0 109.0Q40 165 40 237Q40 309 69.0 365.0Q98 421 151.0 453.0Q204 485 276 485Q348 485 400.5 453.0Q453 421 482.0 365.0Q511 309 511 237Q511 165 482.0 109.0Q453 53 400.5 20.5Q348 -12 276 -12ZM276 22Q338 22 365.5 81.5Q393 141 393 237Q393 332 365.5 391.5Q338 451 276 451Q214 451 186.0 391.5Q158 332 158 237Q158 141 186.0 81.5Q214 22 276 22Z"/>
    <path transform="translate(265.048 86) scale(0.072 -0.072)" d="M52 0Q36 0 36 17Q36 33 52 33Q85 33 100.5 47.0Q116 61 116 92V637Q116 665 110.5 673.5Q105 682 91 685Q84 687 67.5 688.5Q51 690 44 691Q30 693 30 707Q30 722 45 724Q48 724 70.0 724.5Q92 725 119.5 725.0Q147 725 170.0 725.5Q193 726 199 726Q224 726 224 700V253Q241 269 265.5 291.0Q290 313 314.0 335.0Q338 357 353 372Q382 401 376.5 420.5Q371 440 347 440Q332 440 332 457Q332 473 347 473Q358 473 386.0 472.0Q414 471 440 471Q466 471 493.5 472.0Q521 473 532 473Q547 473 547 457Q547 440 532 440Q500 440 468.0 424.0Q436 408 389 364Q384 359 376.5 352.5Q369 346 352 330Q383 277 413.5 226.0Q444 175 467.0 138.0Q490 101 497 90Q513 67 527.5 50.0Q542 33 562 33Q577 33 577 17Q577 0 562 0Q555 0 536.5 1.0Q518 2 497.0 2.5Q476 3 458 3Q432 3 407.0 1.5Q382 0 371 0Q356 0 356 17Q356 33 371 33Q386 33 390.0 42.0Q394 51 386 63Q381 74 363.0 105.0Q345 136 321.5 177.0Q298 218 274 258Q258 243 245.0 232.0Q232 221 224 213V94Q224 57 238.5 45.0Q253 33 275 33Q290 33 290 17Q290 0 275 0Q268 0 249.0 1.0Q230 2 208.5 2.5Q187 3 169 3Q152 3 127.0 2.5Q102 2 80.5 1.0Q59 0 52 0Z"/>
    <path transform="translate(314.008 86) scale(0.072 -0.072)" d="M261 -12Q191 -12 146.5 24.0Q102 60 102 139V386Q102 409 97.5 420.0Q93 431 78 434Q70 436 58.5 437.0Q47 438 39 439Q25 442 25 456Q25 472 40 472Q43 472 63.5 472.5Q84 473 110.0 473.0Q136 473 157.5 473.5Q179 474 185 474Q210 474 210 448V155Q210 103 236.0 79.0Q262 55 304 55Q357 55 382.5 88.5Q408 122 408 168V386Q408 409 403.5 420.0Q399 431 384 434Q376 436 364.5 437.0Q353 438 345 439Q331 442 331 456Q331 472 346 472Q349 472 369.5 472.5Q390 473 416.0 473.0Q442 473 463.5 473.5Q485 474 491 474Q516 474 516 448V87Q516 59 521.5 51.0Q527 43 540 40Q547 39 552.5 37.5Q558 36 563 34Q578 33 578 18Q578 2 562 2Q559 2 542.0 1.5Q525 1 502.5 1.0Q480 1 461.5 0.5Q443 0 437 0Q413 0 412 23Q412 31 411.0 49.5Q410 68 408 76Q406 75 397.0 61.5Q388 48 371.0 31.0Q354 14 327.0 1.0Q300 -12 261 -12Z"/>
  </g>
  <circle cx="40" cy="118" r="6" fill="#C0392F"/>
  <path d="M 52 116 C 160 107 300 109 442 113 C 330 118 170 122 55 122 Z" fill="#221F1A"/>
</svg>
